<?xml version="1.0" encoding="UTF-8" standalone="no"?>
<!-- Created with Inkscape (http://www.inkscape.org/) -->

<svg
   version="1.1"
   id="svg1017"
   xml:space="preserve"
   width="666.66669"
   height="666.66669"
   viewBox="0 0 666.66669 666.66669"
   sodipodi:docname="Logo Gris Jelpus Vertical Vector.svg"
   inkscape:version="1.1 (c68e22c387, 2021-05-23)"
   xmlns:inkscape="http://www.inkscape.org/namespaces/inkscape"
   xmlns:sodipodi="http://sodipodi.sourceforge.net/DTD/sodipodi-0.dtd"
   xmlns="http://www.w3.org/2000/svg"
   xmlns:svg="http://www.w3.org/2000/svg"><defs
     id="defs1021"><clipPath
       clipPathUnits="userSpaceOnUse"
       id="clipPath1031"><path
         d="M 0,500 H 500 V 0 H 0 Z"
         id="path1029" /></clipPath></defs><sodipodi:namedview
     id="namedview1019"
     pagecolor="#ffffff"
     bordercolor="#666666"
     borderopacity="1.0"
     inkscape:pageshadow="2"
     inkscape:pageopacity="0.0"
     inkscape:pagecheckerboard="0"
     showgrid="false"
     inkscape:zoom="1.218"
     inkscape:cx="316.91297"
     inkscape:cy="333.74384"
     inkscape:window-width="1920"
     inkscape:window-height="1009"
     inkscape:window-x="1912"
     inkscape:window-y="-8"
     inkscape:window-maximized="1"
     inkscape:current-layer="g1023" /><g
     id="g1023"
     inkscape:groupmode="layer"
     inkscape:label="black version logo1"
     transform="matrix(1.3333333,0,0,-1.3333333,0,666.66667)"><g
       id="g896"
       transform="translate(-7.254362)"><g
         id="g1033"
         transform="translate(320.2363,299.5107)"><path
           d="m 0,0 c 0,-38.456 -31.175,-69.631 -69.631,-69.631 -38.456,0 -69.63,31.175 -69.63,69.631 0,38.456 31.174,69.63 69.63,69.63 C -31.175,69.63 0,38.456 0,0"
           style="fill:#4d4d4e;fill-opacity:1;fill-rule:nonzero;stroke:none"
           id="path1035" /></g><g
         id="g1037"
         transform="translate(191.458,248.1689)"><path
           d="m 0,0 c 34.467,-34.476 85.247,-30.553 113.691,-0.39 28.007,29.701 29.273,79.337 -5.205,111.466 C 127.637,99.437 141.851,73.066 140.788,46.25 139.273,7.992 112.482,-20.672 79.65,-28.523 47.421,-36.231 15.734,-22.637 0,0"
           style="fill:#fdc010;fill-opacity:1;fill-rule:nonzero;stroke:none"
           id="path1039" /></g><g
         id="g1041"
         transform="translate(283.53398,308.6157)"><path
           d="m 0,0 c -0.003,0.83 -0.174,1.7 -0.458,2.481 -0.972,2.668 -4.594,4.072 -7.158,2.877 -2.319,-1.081 -3.374,-2.917 -3.373,-5.422 0.006,-8.958 0.046,-17.916 -0.008,-26.873 -0.012,-1.924 -0.251,-3.864 -0.578,-5.764 -0.654,-3.799 -2.448,-7.085 -5.002,-9.931 -3.141,-3.5 -6.989,-5.822 -11.62,-6.875 -2.795,-0.636 -5.572,-0.71 -8.376,-0.28 -2.726,0.418 -5.274,1.364 -7.644,2.768 -3.367,1.995 -6.025,4.704 -7.971,8.099 -1.869,3.259 -2.8,6.772 -2.91,10.536 -0.096,3.312 2.241,5.542 4.903,5.863 3.251,0.391 6.086,-2.428 6.058,-5.395 -0.026,-2.603 0.801,-5.01 2.48,-7.072 2.844,-3.492 7.954,-5.12 12.585,-3.333 4.381,1.69 7.101,5.638 7.12,10.089 0.08,18.563 0.049,37.127 0.031,55.69 -0.001,0.729 -0.175,1.494 -0.434,2.179 -0.642,1.694 -2.822,2.75 -4.58,2.307 -2.098,-0.528 -3.305,-2.077 -3.304,-4.257 0.001,-8.958 0.009,-17.916 -10e-4,-26.875 -0.001,-0.451 -0.046,-0.953 -0.245,-1.342 -0.477,-0.933 -1.533,-1.395 -2.403,-1.119 -0.877,0.277 -1.626,1.001 -1.62,2.177 0.031,5.825 0.002,11.65 0.006,17.475 0.001,0.955 0.032,1.913 0.114,2.864 0.021,0.238 -0.116,1.943 -0.116,2.197 0.01,4.712 0.036,9.424 0.012,14.135 -0.004,0.704 -0.166,1.436 -0.399,2.105 -0.508,1.467 -2.123,2.543 -3.711,2.58 -1.533,0.035 -3.251,-1.035 -3.785,-2.468 -0.246,-0.661 -0.419,-1.393 -0.42,-2.093 -0.019,-13.23 -0.005,-26.46 -0.012,-39.69 -10e-4,-0.474 -0.056,-1.005 -0.269,-1.412 -0.475,-0.907 -1.383,-1.22 -2.37,-0.95 -0.974,0.266 -1.562,1.035 -1.564,2.125 -0.008,3.962 -0.001,7.923 10e-4,11.884 0.004,7.198 10e-4,14.395 0.022,21.593 0.002,0.939 -0.174,1.799 -0.734,2.552 -1.167,1.569 -3.019,2.125 -4.885,1.49 -1.532,-0.521 -2.623,-2.176 -2.621,-4.018 0.005,-8.699 0.014,-17.398 0.026,-26.098 0.007,-5.307 0.038,-10.615 0.012,-15.922 -0.003,-0.695 -0.131,-1.473 -0.463,-2.065 -0.517,-0.922 -1.52,-1.148 -2.582,-0.823 -0.836,0.256 -1.406,1.12 -1.407,2.173 -0.004,3.878 -0.002,7.756 0,11.635 0.002,6.887 0.012,13.774 0.006,20.661 -0.002,2.045 -1.739,3.746 -3.76,3.743 -1.862,-0.003 -3.683,-1.69 -3.679,-3.727 0.036,-16.104 0.02,-32.208 0.066,-48.311 0.005,-1.62 0.145,-3.281 0.531,-4.847 0.602,-2.441 1.383,-4.847 2.244,-7.212 1.01,-2.771 2.737,-5.168 4.416,-7.562 0.712,-1.015 1.627,-1.922 2.578,-2.727 1.957,-1.657 3.891,-3.379 6.028,-4.776 4.938,-3.228 10.482,-4.735 16.331,-5.087 3.137,-0.19 6.259,0.21 9.298,0.947 3.999,0.972 7.741,2.612 11.115,5.008 0.509,0.362 2.644,1.635 3.257,2.132 0.005,0.003 8.097,6.273 9.131,13.703 v 0 c 0.436,1.161 0.805,2.348 1.1,3.562 0.657,2.71 1.015,5.476 1.009,8.288 C -0.006,-17.606 0.027,-8.803 0,0"
           style="fill:#fdc010;fill-opacity:1;fill-rule:nonzero;stroke:none"
           id="path1043" /></g></g><g
       id="g888"
       transform="matrix(1.3965593,0,0,1.3965593,-104.13854,-78.649492)"><g
         id="g1045"
         transform="translate(192.813,198.2686)"><path
           d="m 0,0 c 0,-2.332 -1.722,-4.22 -4.553,-4.22 -2.665,0 -4.386,1.888 -4.386,4.22 0,2.442 1.721,4.275 4.497,4.275 C -1.722,4.275 -0.056,2.442 0,0 m -15.38,-39.698 c 2.221,0.167 3.942,0.666 4.997,1.777 1.221,1.276 1.666,3.442 1.666,8.827 v 21.543 h 8.495 v -23.542 c 0,-5.94 -1.333,-9.55 -3.831,-11.882 -2.499,-2.332 -6.441,-3.331 -10.494,-3.331 z"
           style="fill:#fdc010;fill-opacity:1;fill-rule:nonzero;stroke:none"
           id="path1047" /></g><g
         id="g1049"
         transform="translate(215.6304,180.2236)"><path
           d="M 0,0 C 0,2.055 -0.888,5.497 -4.775,5.497 -8.328,5.497 -9.772,2.276 -9.994,0 Z m -9.938,-5.774 c 0.277,-3.497 3.72,-5.164 7.662,-5.164 2.887,0 5.219,0.389 7.495,1.111 l 1.111,-5.719 c -2.777,-1.11 -6.163,-1.666 -9.828,-1.666 -9.216,0 -14.491,5.33 -14.491,13.825 0,6.885 4.275,14.491 13.714,14.491 8.773,0 12.104,-6.829 12.104,-13.546 0,-1.445 -0.167,-2.721 -0.278,-3.332 z"
           style="fill:#fdc010;fill-opacity:1;fill-rule:nonzero;stroke:none"
           id="path1051" /></g><path
         d="m 228.51,202.988 h 8.439 v -39.421 h -8.439 z"
         style="fill:#fdc010;fill-opacity:1;fill-rule:nonzero;stroke:none"
         id="path1053" /><g
         id="g1055"
         transform="translate(252.2168,175.2266)"><path
           d="m 0,0 c 0,-0.666 0.055,-1.276 0.166,-1.776 0.556,-2.277 2.498,-3.997 4.941,-3.997 3.664,0 5.831,3.053 5.831,7.661 0,4.331 -1.944,7.607 -5.719,7.607 C 2.831,9.495 0.722,7.718 0.166,5.22 0.055,4.775 0,4.22 0,3.72 Z m -8.44,6.386 c 0,3.552 -0.111,6.606 -0.222,9.105 h 7.329 l 0.389,-3.776 h 0.111 c 1.999,2.888 5.107,4.387 9.05,4.387 5.941,0 11.271,-5.164 11.271,-13.825 0,-9.882 -6.274,-14.547 -12.326,-14.547 -3.276,0 -5.83,1.332 -7.052,3.11 H 0 v -13.492 h -8.44 z"
           style="fill:#fdc010;fill-opacity:1;fill-rule:nonzero;stroke:none"
           id="path1057" /></g><g
         id="g1059"
         transform="translate(303.085,172.6172)"><path
           d="m 0,0 c 0,-3.554 0.11,-6.44 0.222,-8.717 h -7.328 l -0.39,3.831 h -0.166 c -1.055,-1.666 -3.609,-4.441 -8.495,-4.441 -5.496,0 -9.55,3.441 -9.55,11.825 v 15.936 h 8.495 V 3.831 c 0,-3.942 1.277,-6.329 4.22,-6.329 2.331,0 3.664,1.609 4.22,2.942 0.221,0.5 0.277,1.166 0.277,1.832 V 18.434 H 0 Z"
           style="fill:#4d4d4e;fill-opacity:1;fill-rule:nonzero;stroke:none"
           id="path1061" /></g><g
         id="g1063"
         transform="translate(309.7998,171.2852)"><path
           d="m 0,0 c 1.555,-0.944 4.775,-2.055 7.273,-2.055 2.555,0 3.61,0.889 3.61,2.277 0,1.388 -0.833,2.054 -3.998,3.109 -5.608,1.888 -7.773,4.941 -7.717,8.162 0,5.052 4.33,8.883 11.048,8.883 3.165,0 5.997,-0.722 7.662,-1.555 L 16.38,12.992 c -1.222,0.666 -3.555,1.555 -5.886,1.555 -2.055,0 -3.221,-0.833 -3.221,-2.222 0,-1.277 1.055,-1.942 4.387,-3.109 5.163,-1.777 7.329,-4.386 7.384,-8.383 0,-5.054 -3.997,-8.773 -11.771,-8.773 -3.552,0 -6.717,0.777 -8.772,1.887 z"
           style="fill:#4d4d4e;fill-opacity:1;fill-rule:nonzero;stroke:none"
           id="path1065" /></g></g></g></svg>
